PathFileType	4	(X/Y/Z)	Walk7.trc
DataRate	CameraRate	NumFrames	NumMarkers	Units	OrigDataRate	OrigDataStartFrame	OrigNumFrames
200.000000	200.000000	9	55	mm	200.000000	291	591
Frame#	Times		RFA1		RASI		RUA1		RACR1		RBHD		C7		LFA1		RTH2		RCAR		RTH3		RBack		RElbow		RTB3		RTB1		LElbowM		RMT1		RMT5		RLFC		LTH2		RTB2		RTH4		LTH3		LACR1		RTB4		LElbow		LPSI		RMMAL		LWRU		CLAV		LTH4		RWRR		RPSI		LBHD		LTB1		T10		LLFC		RToe		LFHD		RWRU		LTB3		RTH1		LTB2		LTB4		LMT1		LTH1		LCAL		LMT5		LWRR		LLMAL		RElbowM		RLMAL		LToe		RCAL		LUA1		LCAR
			X1	Y1	Z1	X2	Y2	Z2	X3	Y3	Z3	X4	Y4	Z4	X5	Y5	Z5	X6	Y6	Z6	X7	Y7	Z7	X8	Y8	Z8	X9	Y9	Z9	X10	Y10	Z10	X11	Y11	Z11	X12	Y12	Z12	X13	Y13	Z13	X14	Y14	Z14	X15	Y15	Z15	X16	Y16	Z16	X17	Y17	Z17	X18	Y18	Z18	X19	Y19	Z19	X20	Y20	Z20	X21	Y21	Z21	X22	Y22	Z22	X23	Y23	Z23	X24	Y24	Z24	X25	Y25	Z25	X26	Y26	Z26	X27	Y27	Z27	X28	Y28	Z28	X29	Y29	Z29	X30	Y30	Z30	X31	Y31	Z31	X32	Y32	Z32	X33	Y33	Z33	X34	Y34	Z34	X35	Y35	Z35	X36	Y36	Z36	X37	Y37	Z37	X38	Y38	Z38	X39	Y39	Z39	X40	Y40	Z40	X41	Y41	Z41	X42	Y42	Z42	X43	Y43	Z43	X44	Y44	Z44	X45	Y45	Z45	X46	Y46	Z46	X47	Y47	Z47	X48	Y48	Z48	X49	Y49	Z49	X50	Y50	Z50	X51	Y51	Z51	X52	Y52	Z52	X53	Y53	Z53	X54	Y54	Z54	X55	Y55	Z55

291	1.455	-679.15	927.25	527.66	-502.05	912.93	377.69	-614.01	1186.4	477.42	-528.74	1363.8	399.69	-541.13	1552.8	322.9	-585.31	1416.6	247.71	-505.49	984.88	-79.974	-413.68	667.52	384.67	-683.85	739.52	533	-427.08	550.58	401.82	-666.18	1328.5	336.51	-688.06	1074.1	500.14	-272.11	204.6	303.62	-323.25	388.04	303.59	-649.56	1087.6	24.29	-136.09	90.347	264.89	-160.79	73.019	344.09	-387.16	459.8	381.38	-555.13	620.19	86.678	-312.89	291.27	376.31	-468.63	633.72	421.65	-646.57	551.41	63.363	-540.79	1407.3	74.756	-295.89	299.32	305.27	-626.03	1093.8	-54.449	-686.68	939.07	181.53	-271.61	110.87	256.2	-487.45	867.16	-71.898	-454.88	1327.9	236.87	-620.71	636.57	48.203	-643.81	786	493.3	-686.06	936.42	286.24	-545.83	1554.4	184.74	-696.97	339.77	142.85	-692.59	1110.4	232.33	-697.96	440.94	82.005	-95.077	112.79	293.65	-361.15	1562.4	201.41	-715.53	800.05	522.83	-796.81	184.23	161.36	-511.62	717.69	432.51	-775.18	272.82	86.574	-749.26	263.42	152.89	-765.2	34.609	217.32	-591.86	729.13	40.262	-970.68	73.89	188.25	-794.92	28.709	127.04	-424.12	905.59	-37.681	-911.47	100.7	140.38	-706.19	1052.7	406.36	-295.17	85.412	340.51	-717.63	24.468	204.64	-321.23	22.599	295.42	-587.65	1220.9	-29.417	-405.71	856.54	-85.706
292	1.46	-672.37	925.82	527.91	-494.59	912.32	378.2	-607.03	1185	477.78	-521.85	1362.6	400.69	-534.19	1551.6	324.03	-578.54	1415.6	248.48	-498.19	984.48	-79.881	-404.42	667.25	385.22	-677.04	738.12	533.49	-417.96	550.27	401.7	-659.35	1327	336.86	-680.96	1072.5	500.36	-267.13	202.17	302.56	-316.04	386.31	302.81	-642.26	1086.7	24.699	-133.06	87.248	263.26	-157.81	70.053	342.65	-378.63	459.09	381.22	-548.56	619.06	86.787	-306.24	289.62	375.4	-459.36	633.45	421.68	-640.31	550.77	63.692	-533.72	1406.5	75.412	-289.92	297.22	304.14	-618.66	1093.3	-54.197	-678.78	937.82	181.86	-268.32	108.48	255.25	-479.58	866.84	-71.84	-447.87	1327.1	237.84	-614.17	635.64	48.524	-636.95	784.51	493.63	-678.35	935.4	286.51	-538.79	1553.6	185.86	-692.17	338.85	142.97	-685.21	1109.4	232.52	-691.86	440.26	82.233	-91.69	109.06	291.79	-354.31	1561.6	202.55	-708.9	798.66	522.83	-794.17	184.94	161.01	-502.67	717.55	432.36	-771.32	273.16	86.375	-745.34	263.27	152.87	-765.09	34.608	217.2	-585.02	728.25	40.717	-969.59	77.046	187.77	-794.67	28.75	127.08	-416.27	905.26	-37.407	-910.02	102.93	139.9	-699.43	1051.2	406.71	-291.56	83.395	339.67	-717.69	24.457	204.66	-319.34	22.101	295.38	-580.39	1220.3	-29.022	-397.68	856.39	-85.333
293	1.465	-665.43	924.44	528.18	-486.38	911.8	378.64	-600.27	1183.6	478.33	-515.32	1361.7	401.18	-527.42	1550.9	324.99	-571.7	1414.6	249.16	-490.34	983.91	-79.535	-395.15	667.08	385.74	-670.28	736.71	533.41	-409.06	549.71	401.31	-652.54	1325.7	337.36	-674.19	1071.3	500.92	-262.63	199.82	301.26	-309.07	384.31	301.97	-635.09	1085.8	24.89	-130.04	83.828	261.7	-154.87	66.785	341.17	-370.13	458.25	380.87	-541.73	618.34	87.008	-299.79	287.59	374.29	-450.31	632.97	421.54	-633.76	550.03	63.944	-526.4	1405.7	76.349	-283.97	295.07	302.97	-611.33	1092.7	-53.984	-671.41	937.02	182.26	-265.41	105.35	254.08	-471.77	866.32	-71.468	-441.28	1326	238.92	-607.51	634.83	48.726	-630.2	783.22	494.02	-670.51	934.52	286.91	-531.76	1552.9	186.87	-686.91	338.15	142.92	-677.59	1108	232.87	-685.44	439.73	82.364	-88.677	105.45	289.81	-347.31	1560.6	203.77	-701.92	797.33	522.97	-791.55	185.53	160.71	-493.51	717.21	431.92	-767.14	273.3	86.402	-741.4	263.11	152.91	-765.02	34.622	217.17	-578.21	727.41	41.182	-968.41	80.305	187.19	-794.4	28.853	127.05	-408.55	905.16	-37.061	-908.39	105.29	139.38	-692.42	1049.7	407.04	-288.17	81.173	338.85	-717.72	24.461	204.74	-318.29	21.83	295.31	-573.07	1219.6	-28.555	-389.9	856.08	-84.919
294	1.47	-658.42	923.18	528.46	-478.48	911.33	379.21	-593.55	1182.6	478.99	-508.76	1360.2	401.72	-520.68	1550.2	325.99	-564.85	1413.8	249.92	-482.94	983.57	-79.101	-385.78	666.73	386.39	-662.95	735.32	533.33	-400.48	549.42	400.67	-645.84	1324.6	337.86	-667.13	1070	501.09	-257.64	197.47	299.76	-302.18	382.52	301.13	-628.22	1085.1	24.914	-127.69	79.219	260.53	-152.24	62.001	339.27	-361.74	457.46	380.67	-534.78	617.27	87.052	-293.62	285.73	372.96	-441.8	632.52	421.23	-626.77	549.29	64.253	-519.5	1404.9	77.213	-277.8	292.83	301.89	-603.92	1092.1	-53.589	-663.9	935.86	182.54	-262.54	103.09	252.76	-464.2	866.1	-71.191	-434.34	1325	239.87	-600.42	634	49.053	-623.26	781.93	494.36	-662.62	933.61	287.27	-525.06	1552.4	187.86	-681.42	337.38	142.73	-670.13	1106.8	233.22	-678.89	439.12	82.337	-85.789	100.7	286.75	-340.52	1559.9	204.84	-694.69	795.8	523.21	-788.59	186.16	160.71	-485.04	716.78	431.51	-762.89	273.75	86.523	-737.45	262.99	152.94	-764.95	34.556	217.16	-571.2	726.72	41.644	-966.96	83.74	186.69	-794.1	28.973	126.98	-400.94	904.67	-36.844	-906.48	107.63	138.88	-685.39	1048.6	407.3	-285.19	79.148	337.64	-717.75	24.45	204.76	-317.75	22.281	294.85	-565.88	1219	-27.834	-382.04	856.06	-84.646
295	1.475	-651.32	921.76	528.81	-470.59	910.97	379.5	-586.84	1181.4	479.63	-502.12	1359.4	402.85	-513.69	1549.4	327.14	-557.84	1412.8	250.75	-475.59	983.17	-78.723	-376.83	666.35	387.08	-655.4	734.07	533.43	-392.55	549.07	399.6	-639.18	1323.3	338.39	-660.3	1068.6	501.37	-252.49	195.76	298.11	-295.18	381.02	300.37	-621.09	1084.5	25.115	-124.66	72.047	259.26	-149.87	55.356	337.67	-353.13	456.52	380.79	-527.73	616.22	87.084	-287.27	284.36	371.34	-433.51	632.09	420.81	-619.75	548.27	64.478	-512.79	1404.3	77.971	-271.5	291.28	300.94	-596.72	1091.6	-53.416	-656.34	935.18	182.98	-259.44	101.78	251.56	-456.93	865.79	-70.998	-427.2	1324.4	240.77	-593.49	633.12	49.302	-615.77	780.68	494.53	-654.89	932.72	287.79	-518.08	1551.7	188.9	-676.06	336.11	142.88	-662.74	1105.9	233.88	-672.19	438.39	82.508	-82.726	92.174	283.58	-333.5	1559.1	205.87	-687.47	794.53	523.35	-785.25	186.89	160.36	-476.52	716.36	431.18	-758.18	273.95	86.472	-733.28	262.89	152.98	-764.9	34.557	217.11	-564.09	725.87	41.814	-965.55	87.607	185.84	-793.61	29.054	126.95	-393.61	904.39	-36.404	-904.57	110.22	138.16	-678.17	1047.3	407.71	-282.03	78.009	336.32	-717.86	24.441	204.8	-316.65	23.747	294.41	-558.85	1218.5	-27.219	-374.73	855.79	-84.466
296	1.48	-644	920.42	529.11	-462.54	910.52	379.59	-579.98	1180.1	480.15	-495.43	1358.9	403.87	-506.77	1548.8	328.09	-551	1411.9	251.49	-468.41	982.85	-78.408	-367.97	666.25	387.9	-648.22	732.65	533.76	-384.93	548.85	398.63	-632.23	1322.1	338.93	-653.13	1067.1	501.73	-247.32	194.87	296.92	-287.91	380.49	299.77	-613.67	1083.8	25.636	-121.35	63.859	256.67	-147.64	49.45	336.46	-345.51	456.04	381.19	-520.24	615.47	87.345	-280.55	283.47	370.36	-425.74	632.03	420.35	-612.49	547.52	64.792	-505.79	1403.8	78.812	-265.16	290.47	300.14	-589.57	1091.2	-53.061	-648.76	934.38	183.64	-255.9	100.83	250.95	-449.62	865.53	-70.721	-420.01	1323.7	241.47	-586.12	632.42	49.806	-608.11	779.54	494.73	-647.33	932.17	288.3	-510.98	1551.3	190.08	-670.27	335.11	143.15	-655.05	1105.1	234.38	-664.96	437.66	82.982	-79.052	81.956	282.74	-326.44	1558.7	207.08	-680.04	793.16	523.4	-782.15	187.8	160	-468.04	716.51	430.64	-753.41	274.36	86.287	-728.83	262.63	152.99	-764.73	34.783	216.84	-556.71	725.28	42.31	-963.86	91.633	184.99	-793.11	29.146	127.01	-386.26	904.12	-36.195	-902.49	112.99	137.45	-670.83	1045.7	408.05	-278.42	78.136	335.95	-718.01	24.46	204.75	-315.59	25.312	293.94	-551.62	1218	-26.509	-367.61	855.4	-84.121
297	1.485	-636.59	919.15	529.39	-454.73	910.23	379.45	-572.94	1179.1	480.61	-488.71	1357.9	404.65	-499.65	1548.3	329.1	-544.13	1411.3	252.45	-461.21	982.51	-78.086	-359.27	666.2	388.71	-640.62	731.43	533.92	-377.59	548.49	397.75	-625.04	1321.2	339.53	-645.67	1065.8	502.24	-242.17	194.21	296.26	-280.27	380.79	299.3	-606.6	1083.3	25.922	-119.01	58.321	254.8	-145.55	45.569	335.31	-337.95	456.44	381.64	-512.79	614.35	87.873	-272.62	283.56	369.85	-418.19	631.86	419.81	-605.1	546.76	65.345	-498.64	1403.3	79.85	-258.85	290	299.62	-582.39	1091	-52.533	-640.69	933.92	183.98	-252.34	99.843	250.7	-442.2	865.09	-70.57	-412.6	1323.4	242.4	-578.93	631.32	50.509	-600.28	778.55	495.1	-639.86	931.45	289.26	-504.06	1551	191.28	-664.34	333.92	143.64	-647.68	1104.8	234.94	-657.83	436.91	83.723	-76.149	74.115	283.29	-319.4	1558.5	208.37	-672.61	791.81	523.59	-778.74	188.51	160.03	-459.68	716.8	430.23	-748.22	275.05	86.368	-724.09	262.46	153	-764.66	34.705	216.79	-549.3	724.4	42.814	-961.79	95.844	183.97	-792.59	29.264	126.95	-379.07	903.83	-35.672	-900.17	115.93	136.64	-663.56	1044.4	408.48	-274.74	78.887	336.49	-718.13	24.508	204.72	-314.32	26.773	294.4	-544.59	1217.8	-25.856	-360.32	855.26	-83.908
298	1.49	-628.97	917.86	529.76	-447.18	910.42	379.3	-565.51	1178	481.14	-481.89	1357.3	405.49	-492.44	1548.3	330.31	-537.16	1411.1	253.45	-454.01	982.37	-77.799	-350.68	666.15	389.41	-632.67	730.04	534.17	-369.83	548.67	397.24	-617.83	1320.3	340.4	-638.33	1064.8	502.8	-237.78	193.89	296.04	-272.74	381.06	298.67	-599.52	1082.9	26.408	-117.09	55.939	254.4	-143.35	42.962	334.68	-330.57	457.32	382.16	-504.77	613.52	87.673	-264.58	284.21	369.99	-410.42	631.73	419.34	-597.17	545.77	65.801	-491.71	1403	80.611	-252.82	289.9	298.96	-575.09	1090.6	-51.945	-632.98	933.32	184.79	-249.59	99.38	250.95	-435.18	864.71	-70.428	-405.25	1323	243.29	-571.05	630.63	50.639	-592.9	777.12	495.58	-632.15	931.35	289.76	-496.93	1551.1	192.28	-658.36	333.14	144.63	-640.38	1104.6	235.07	-649.76	436.29	84.145	-73.934	71.038	282.34	-312.46	1558.4	209.6	-664.93	790.49	523.66	-775.21	189.69	160.2	-451.6	716.86	430.2	-742.65	275.62	86.598	-718.57	262.62	153.06	-764.54	34.739	216.72	-541.72	723.78	43.661	-959.44	100.57	182.87	-792	29.507	126.88	-372.04	903.41	-35.405	-897.44	118.98	135.73	-656.13	1043.5	408.76	-271.59	79.383	337.5	-718.22	24.526	204.76	-313.08	27.743	295.17	-537.43	1217.5	-25.023	-353.04	854.98	-83.722
299	1.495	-621.24	916.88	530.01	-439.05	910.6	379.16	-558.49	1177.2	481.69	-474.99	1356.6	406.62	-485.3	1548.1	331.59	-530.18	1410.7	254.56	-447	982.11	-77.356	-342.59	666.33	390.11	-625.05	728.99	534.5	-362.19	548.69	397.16	-610.73	1319.6	340.97	-630.69	1063.7	503.16	-233.8	193.38	296.09	-265.38	381.24	298.37	-592.33	1082.7	27.016	-115.67	53.995	254.69	-141.57	40.969	334.85	-321.87	458.52	382.72	-496.83	613.25	88.125	-256.91	284.76	370.11	-402.68	632.12	419.11	-588.84	545.09	66.239	-484.88	1402.8	81.519	-247.23	289.79	298.68	-568.05	1090.4	-51.453	-625.52	933.09	185.02	-247.49	99.048	251.43	-428.21	864.51	-70.095	-398.2	1322.8	244.3	-562.94	630.19	51.178	-585.25	776.07	495.53	-624.59	931.71	290.36	-489.68	1551.2	193.6	-651.6	332.43	145.21	-632.91	1104.1	235.33	-641.4	435.49	84.53	-71.839	69.205	280.22	-305.3	1558.7	210.78	-657.03	789.38	523.83	-771.05	191.03	160.23	-443.71	716.91	430.38	-736.68	276.19	86.869	-713.03	263.08	153.3	-764.09	35.217	216.57	-534.07	722.96	44.381	-956.69	105.73	181.9	-791.36	29.839	126.93	-365.34	903.1	-34.987	-894.45	122.3	135.08	-648.59	1042.5	409.24	-268.51	79.141	338.44	-718.32	24.56	204.74	-311.68	28.844	295.46	-530.39	1217.3	-24.331	-346.18	854.61	-83.385
